<svg width="36" height="35" viewBox="0 0 36 35" fill="none"
  xmlns="http://www.w3.org/2000/svg">
  <path
    d="M23.4687 17.5003H12.5312V21.1462H23.4687V17.5003ZM28.5387 8.89844L22.9618 3.31576C22.7054 3.05941 22.3579 2.91699 21.9933 2.91699H21.6458V10.2087H28.9375V9.86117C28.9375 9.50228 28.7951 9.15479 28.5387 8.89844ZM19.8229 10.6644V2.91699H8.42969C7.67204 2.91699 7.0625 3.52653 7.0625 4.28418V30.7165C7.0625 31.4741 7.67204 32.0837 8.42969 32.0837H27.5703C28.328 32.0837 28.9375 31.4741 28.9375 30.7165V12.0316H21.1901C20.4382 12.0316 19.8229 11.4163 19.8229 10.6644ZM10.7083 7.01856C10.7083 6.76676 10.9123 6.56283 11.1641 6.56283H15.7214C15.9731 6.56283 16.1771 6.76676 16.1771 7.01856V7.93001C16.1771 8.1818 15.9731 8.38574 15.7214 8.38574H11.1641C10.9123 8.38574 10.7083 8.1818 10.7083 7.93001V7.01856ZM10.7083 10.6644C10.7083 10.4126 10.9123 10.2087 11.1641 10.2087H15.7214C15.9731 10.2087 16.1771 10.4126 16.1771 10.6644V11.5758C16.1771 11.8276 15.9731 12.0316 15.7214 12.0316H11.1641C10.9123 12.0316 10.7083 11.8276 10.7083 11.5758V10.6644ZM25.2917 27.9821C25.2917 28.2339 25.0877 28.4378 24.8359 28.4378H20.2786C20.0269 28.4378 19.8229 28.2339 19.8229 27.9821V27.0706C19.8229 26.8189 20.0269 26.6149 20.2786 26.6149H24.8359C25.0877 26.6149 25.2917 26.8189 25.2917 27.0706V27.9821ZM25.2917 16.5889V22.0576C25.2917 22.5612 24.8838 22.9691 24.3802 22.9691H11.6198C11.1162 22.9691 10.7083 22.5612 10.7083 22.0576V16.5889C10.7083 16.0853 11.1162 15.6774 11.6198 15.6774H24.3802C24.8838 15.6774 25.2917 16.0853 25.2917 16.5889Z"
    fill="#009444" />
</svg>