<svg style="margin-right: 8px;" width="20" height="20"
													viewBox="0 0 20 20" fill="none" xmlns="http://www.w3.org/2000/svg">
													<path fill-rule="evenodd" clip-rule="evenodd"
														d="M14.5576 14.1923C14.4994 14.1343 14.4533 14.0653 14.4218 13.9894C14.3902 13.9134 14.374 13.832 14.374 13.7498C14.374 13.6676 14.3902 13.5862 14.4218 13.5103C14.4533 13.4343 14.4994 13.3654 14.5576 13.3073L17.8664 9.99981L14.5576 6.69231C14.4403 6.57495 14.3744 6.41578 14.3744 6.24981C14.3744 6.08384 14.4403 5.92467 14.5576 5.80731C14.675 5.68995 14.8342 5.62402 15.0001 5.62402C15.1661 5.62402 15.3253 5.68995 15.4426 5.80731L19.1926 9.55731C19.2508 9.61537 19.297 9.68434 19.3285 9.76027C19.36 9.8362 19.3763 9.9176 19.3763 9.99981C19.3763 10.082 19.36 10.1634 19.3285 10.2394C19.297 10.3153 19.2508 10.3843 19.1926 10.4423L15.4426 14.1923C15.3846 14.2505 15.3156 14.2967 15.2397 14.3282C15.1638 14.3597 15.0823 14.3759 15.0001 14.3759C14.9179 14.3759 14.8365 14.3597 14.7606 14.3282C14.6847 14.2967 14.6157 14.2505 14.5576 14.1923V14.1923Z"
														fill="white" />
													<path fill-rule="evenodd" clip-rule="evenodd"
														d="M5.625 10C5.625 9.83424 5.69085 9.67527 5.80806 9.55806C5.92527 9.44085 6.08424 9.375 6.25 9.375H17.5C17.6658 9.375 17.8247 9.44085 17.9419 9.55806C18.0592 9.67527 18.125 9.83424 18.125 10C18.125 10.1658 18.0592 10.3247 17.9419 10.4419C17.8247 10.5592 17.6658 10.625 17.5 10.625H6.25C6.08424 10.625 5.92527 10.5592 5.80806 10.4419C5.69085 10.3247 5.625 10.1658 5.625 10Z"
														fill="white" />
													<path fill-rule="evenodd" clip-rule="evenodd"
														d="M2.5 16.875C2.00272 16.875 1.52581 16.6775 1.17417 16.3258C0.822544 15.9742 0.625 15.4973 0.625 15V5C0.625 4.50272 0.822544 4.02581 1.17417 3.67417C1.52581 3.32254 2.00272 3.125 2.5 3.125H11.25C11.7473 3.125 12.2242 3.32254 12.5758 3.67417C12.9275 4.02581 13.125 4.50272 13.125 5V6.875C13.125 7.04076 13.0592 7.19973 12.9419 7.31694C12.8247 7.43415 12.6658 7.5 12.5 7.5C12.3342 7.5 12.1753 7.43415 12.0581 7.31694C11.9408 7.19973 11.875 7.04076 11.875 6.875V5C11.875 4.83424 11.8092 4.67527 11.6919 4.55806C11.5747 4.44085 11.4158 4.375 11.25 4.375H2.5C2.33424 4.375 2.17527 4.44085 2.05806 4.55806C1.94085 4.67527 1.875 4.83424 1.875 5V15C1.875 15.1658 1.94085 15.3247 2.05806 15.4419C2.17527 15.5592 2.33424 15.625 2.5 15.625H11.25C11.4158 15.625 11.5747 15.5592 11.6919 15.4419C11.8092 15.3247 11.875 15.1658 11.875 15V13.125C11.875 12.9592 11.9408 12.8003 12.0581 12.6831C12.1753 12.5658 12.3342 12.5 12.5 12.5C12.6658 12.5 12.8247 12.5658 12.9419 12.6831C13.0592 12.8003 13.125 12.9592 13.125 13.125V15C13.125 15.4973 12.9275 15.9742 12.5758 16.3258C12.2242 16.6775 11.7473 16.875 11.25 16.875H2.5Z"
														fill="white" />
												</svg>