<svg style="margin-right: 8px;" width="20" height="20"
													viewBox="0 0 20 20" fill="none" xmlns="http://www.w3.org/2000/svg">
													<path fill-rule="evenodd" clip-rule="evenodd"
														d="M9.55731 5.80764C9.61537 5.74944 9.68434 5.70326 9.76027 5.67175C9.8362 5.64024 9.9176 5.62402 9.99981 5.62402C10.082 5.62402 10.1634 5.64024 10.2394 5.67175C10.3153 5.70326 10.3843 5.74944 10.4423 5.80764L17.9423 13.3076C18.0597 13.425 18.1256 13.5842 18.1256 13.7501C18.1256 13.9161 18.0597 14.0753 17.9423 14.1926C17.825 14.31 17.6658 14.3759 17.4998 14.3759C17.3338 14.3759 17.1747 14.31 17.0573 14.1926L9.99981 7.13389L2.94231 14.1926C2.82495 14.31 2.66578 14.3759 2.49981 14.3759C2.33384 14.3759 2.17467 14.31 2.05731 14.1926C1.93995 14.0753 1.87402 13.9161 1.87402 13.7501C1.87402 13.5842 1.93995 13.425 2.05731 13.3076L9.55731 5.80764V5.80764Z"
														fill="white" />
												</svg>