<svg style="margin-right: 8px;" width="20" height="20" viewBox="0 0 20 20"
  fill="none" xmlns="http://www.w3.org/2000/svg">
  <path fill-rule="evenodd" clip-rule="evenodd"
    d="M9.81764 14.1923C9.87584 14.1343 9.92202 14.0653 9.95353 13.9894C9.98504 13.9134 10.0013 13.832 10.0013 13.7498C10.0013 13.6676 9.98504 13.5862 9.95353 13.5103C9.92202 13.4343 9.87584 13.3654 9.81764 13.3073L6.50889 9.99981L9.81764 6.69231C9.935 6.57495 10.0009 6.41578 10.0009 6.24981C10.0009 6.08384 9.935 5.92467 9.81764 5.80731C9.70028 5.68995 9.54111 5.62402 9.37514 5.62402C9.20917 5.62402 9.05 5.68995 8.93264 5.80731L5.18264 9.55731C5.12444 9.61537 5.07826 9.68434 5.04675 9.76027C5.01524 9.8362 4.99902 9.9176 4.99902 9.99981C4.99902 10.082 5.01524 10.1634 5.04675 10.2394C5.07826 10.3153 5.12444 10.3843 5.18264 10.4423L8.93264 14.1923C8.9907 14.2505 9.05967 14.2967 9.1356 14.3282C9.21153 14.3597 9.29293 14.3759 9.37514 14.3759C9.45735 14.3759 9.53875 14.3597 9.61468 14.3282C9.69061 14.2967 9.75958 14.2505 9.81764 14.1923V14.1923Z"
    fill="white" />
  <path fill-rule="evenodd" clip-rule="evenodd"
    d="M18.75 10C18.75 9.83424 18.6842 9.67527 18.5669 9.55806C18.4497 9.44085 18.2908 9.375 18.125 9.375H6.875C6.70924 9.375 6.55027 9.44085 6.43306 9.55806C6.31585 9.67527 6.25 9.83424 6.25 10C6.25 10.1658 6.31585 10.3247 6.43306 10.4419C6.55027 10.5592 6.70924 10.625 6.875 10.625H18.125C18.2908 10.625 18.4497 10.5592 18.5669 10.4419C18.6842 10.3247 18.75 10.1658 18.75 10Z"
    fill="white" />
  <path fill-rule="evenodd" clip-rule="evenodd"
    d="M3.125 18.125C2.62772 18.125 2.15081 17.9275 1.79917 17.5758C1.44754 17.2242 1.25 16.7473 1.25 16.25V3.75C1.25 3.25272 1.44754 2.77581 1.79917 2.42417C2.15081 2.07254 2.62772 1.875 3.125 1.875H13.125C13.6223 1.875 14.0992 2.07254 14.4508 2.42417C14.8025 2.77581 15 3.25272 15 3.75V5.625C15 5.79076 14.9342 5.94973 14.8169 6.06694C14.6997 6.18415 14.5408 6.25 14.375 6.25C14.2092 6.25 14.0503 6.18415 13.9331 6.06694C13.8158 5.94973 13.75 5.79076 13.75 5.625V3.75C13.75 3.58424 13.6842 3.42527 13.5669 3.30806C13.4497 3.19085 13.2908 3.125 13.125 3.125H3.125C2.95924 3.125 2.80027 3.19085 2.68306 3.30806C2.56585 3.42527 2.5 3.58424 2.5 3.75V16.25C2.5 16.4158 2.56585 16.5747 2.68306 16.6919C2.80027 16.8092 2.95924 16.875 3.125 16.875H13.125C13.2908 16.875 13.4497 16.8092 13.5669 16.6919C13.6842 16.5747 13.75 16.4158 13.75 16.25V14.375C13.75 14.2092 13.8158 14.0503 13.9331 13.9331C14.0503 13.8158 14.2092 13.75 14.375 13.75C14.5408 13.75 14.6997 13.8158 14.8169 13.9331C14.9342 14.0503 15 14.2092 15 14.375V16.25C15 16.7473 14.8025 17.2242 14.4508 17.5758C14.0992 17.9275 13.6223 18.125 13.125 18.125H3.125Z"
    fill="white" />
</svg>

										