<svg width="21" height="20" viewBox="0 0 21 20" fill="none"
											xmlns="http://www.w3.org/2000/svg">
											<g clip-path="url(#clip0)">
												<path fill-rule="evenodd" clip-rule="evenodd"
													d="M4.06731 8.93264C4.00926 8.87444 3.94029 8.82826 3.86436 8.79675C3.78842 8.76524 3.70702 8.74902 3.62481 8.74902C3.5426 8.74902 3.4612 8.76524 3.38527 8.79675C3.30934 8.82826 3.24037 8.87444 3.18231 8.93264L0.682313 11.4326C0.564955 11.55 0.499023 11.7092 0.499023 11.8751C0.499023 12.0411 0.564955 12.2003 0.682313 12.3176C0.799671 12.435 0.958843 12.5009 1.12481 12.5009C1.29078 12.5009 1.44995 12.435 1.56731 12.3176L3.62481 10.2589L5.68231 12.3176C5.79967 12.435 5.95884 12.5009 6.12481 12.5009C6.29078 12.5009 6.44996 12.435 6.56731 12.3176C6.68467 12.2003 6.7506 12.0411 6.7506 11.8751C6.7506 11.7092 6.68467 11.55 6.56731 11.4326L4.06731 8.93264V8.93264ZM20.3173 7.68264C20.2593 7.62444 20.1903 7.57826 20.1144 7.54675C20.0384 7.51524 19.957 7.49902 19.8748 7.49902C19.7926 7.49902 19.7112 7.51524 19.6353 7.54675C19.5593 7.57826 19.4904 7.62444 19.4323 7.68264L17.3748 9.74139L15.3173 7.68264C15.2 7.56528 15.0408 7.49935 14.8748 7.49935C14.7088 7.49935 14.5497 7.56528 14.4323 7.68264C14.315 7.8 14.249 7.95917 14.249 8.12514C14.249 8.29111 14.315 8.45028 14.4323 8.56764L16.9323 11.0676C16.9904 11.1258 17.0593 11.172 17.1353 11.2035C17.2112 11.235 17.2926 11.2513 17.3748 11.2513C17.457 11.2513 17.5384 11.235 17.6144 11.2035C17.6903 11.172 17.7593 11.1258 17.8173 11.0676L20.3173 8.56764C20.3755 8.50958 20.4217 8.44061 20.4532 8.36468C20.4847 8.28875 20.5009 8.20735 20.5009 8.12514C20.5009 8.04293 20.4847 7.96153 20.4532 7.8856C20.4217 7.80967 20.3755 7.7407 20.3173 7.68264V7.68264Z"
													fill="white" />
												<path fill-rule="evenodd" clip-rule="evenodd"
													d="M10.5 3.74967C9.45895 3.74887 8.43423 4.00839 7.51905 4.50462C6.60388 5.00084 5.82731 5.71803 5.26 6.59092C5.16672 6.72317 5.02578 6.81408 4.86684 6.84453C4.70789 6.87497 4.54333 6.84257 4.40778 6.75415C4.27224 6.66573 4.17627 6.52818 4.14008 6.37044C4.1039 6.21271 4.1303 6.04708 4.21375 5.90842C5.09561 4.55321 6.39182 3.51928 7.90915 2.96074C9.42649 2.40219 11.0837 2.34895 12.6337 2.80895C14.1838 3.26895 15.5437 4.21756 16.5107 5.51337C17.4778 6.80917 18.0001 8.3828 18 9.99967C18 10.1656 17.9341 10.3247 17.8168 10.4421C17.6994 10.5594 17.5403 10.6253 17.3744 10.6253C17.2084 10.6253 17.0493 10.5594 16.932 10.4421C16.8147 10.3247 16.7487 10.1656 16.7487 9.99967C16.7487 8.34206 16.0903 6.75235 14.9182 5.58025C13.7461 4.40815 12.1564 3.74967 10.4988 3.74967H10.5ZM3.625 9.37467C3.79076 9.37467 3.94973 9.44052 4.06694 9.55773C4.18415 9.67494 4.25 9.83391 4.25 9.99967C4.24954 11.3474 4.68475 12.6592 5.49073 13.7394C6.29672 14.8196 7.43029 15.6104 8.72238 15.9937C10.0145 16.377 11.3959 16.3324 12.6605 15.8665C13.9252 15.4006 15.0054 14.5384 15.74 13.4084C15.7833 13.3365 15.8407 13.274 15.9087 13.2247C15.9767 13.1754 16.0539 13.1403 16.1357 13.1215C16.2176 13.1027 16.3024 13.1006 16.3851 13.1154C16.4678 13.1301 16.5466 13.1613 16.617 13.2072C16.6873 13.2531 16.7477 13.3127 16.7945 13.3824C16.8413 13.4522 16.8735 13.5306 16.8893 13.6131C16.9051 13.6956 16.9042 13.7804 16.8864 13.8625C16.8687 13.9446 16.8347 14.0223 16.7863 14.0909C15.9044 15.4461 14.6082 16.4801 13.0908 17.0386C11.5735 17.5971 9.91631 17.6504 8.36625 17.1904C6.8162 16.7304 5.4563 15.7818 4.48927 14.486C3.52224 13.1902 2.99986 11.6165 3 9.99967C3 9.91749 3.01621 9.83611 3.04769 9.7602C3.07918 9.68429 3.12533 9.61534 3.1835 9.55728C3.24167 9.49923 3.31072 9.45322 3.38669 9.42188C3.46266 9.39055 3.54407 9.3745 3.62625 9.37467H3.625Z"
													fill="#383838" />
											</g>
											<defs>
												<clipPath id="clip0">
													<rect width="20" height="20" fill="white"
														transform="translate(0.5)" />
												</clipPath>
											</defs>
										</svg>