<svg width="38" height="35" viewBox="0 0 38 24" fill="none"
  xmlns="http://www.w3.org/2000/svg">
  <path
    d="M21.0279 10.7826C20.2716 11.7893 20.449 13.2009 21.4239 13.9334C22.3989 14.6658 23.8041 14.4432 24.5604 13.4365C25.3167 12.4298 25.1393 11.0181 24.1644 10.2857C23.1895 9.55323 21.7843 9.77584 21.0279 10.7826ZM12.5921 0.899452L1.86244 1.39815C1.37861 1.4231 0.989393 1.82281 0.983685 2.3129L0.866066 9.6614C0.85983 10.1158 1.18886 10.4972 1.63395 10.542L11.21 11.6061C11.1557 12.3704 11.1707 13.1515 11.2697 13.9392C11.6716 17.1368 13.324 19.826 15.6761 21.5931C22.5399 26.7499 32.6235 22.5593 34.2212 13.9145C34.7439 13.8778 35.2557 13.7263 35.7208 13.4705C36.186 13.2148 36.593 12.861 36.9134 12.434C38.1208 10.8269 37.8365 8.56519 36.2801 7.39589C35.4407 6.76526 34.3684 6.58117 33.3399 6.83956C32.5497 5.15117 31.3647 3.72418 29.922 2.64028C26.1316 -0.207425 22.9365 0.42202 18.1186 0.644385C17.741 0.664425 17.4084 0.915975 17.2842 1.28167L16.7228 2.95749C16.6623 3.13808 16.4965 3.26775 16.3072 3.27387L14.5005 3.35726C14.3156 3.36667 14.1437 3.25868 14.078 3.08217L13.4319 1.43855C13.298 1.09784 12.9619 0.880641 12.5921 0.899452ZM34.4038 12.06C34.4167 11.4694 34.4053 10.8746 34.3298 10.2741C34.2533 9.66577 34.1211 9.08617 33.9588 8.51929C34.3965 8.47382 34.8305 8.58801 35.1846 8.85406C35.9628 9.43871 36.105 10.5696 35.5012 11.3731C35.2265 11.7388 34.8279 11.969 34.4038 12.06ZM3.62838 4.45521C3.63342 4.21181 3.82584 4.01031 4.06945 3.99558L11.3949 3.65835L12.1558 5.58603C12.294 5.93003 12.6301 6.14723 12.9999 6.12842L17.9208 5.90566C18.2983 5.88562 18.6309 5.63407 18.7552 5.26837L19.4201 3.28186C19.4201 3.28186 23.101 3.11633 23.6906 3.11439C25.8874 3.26751 30.94 4.88119 31.6703 10.6914C32.2878 15.6048 28.8114 20.2321 23.9204 21.0069C21.5525 21.382 19.2009 20.816 17.3167 19.4003C12.853 16.0468 13.9387 10.9511 14.0622 9.19355L3.95605 8.07022C3.7352 8.04555 3.56899 7.85712 3.57162 7.62603L3.62838 4.45521Z"
    fill="#009444" />
</svg>