<svg width="36" height="35" viewBox="0 0 36 35" fill="none" xmlns="http://www.w3.org/2000/svg">
<g clip-path="url(#clip0)">
<g filter="url(#filter0_d)">
<path d="M22.3753 21.1458H24.5628C24.9274 21.1458 25.292 20.7813 25.292 20.4167V12.7604C25.292 12.3958 24.9274 12.0312 24.5628 12.0312H22.3753C22.0107 12.0312 21.6462 12.3958 21.6462 12.7604V20.4167C21.6462 20.7813 22.0107 21.1458 22.3753 21.1458V21.1458ZM27.8441 21.1458H30.0316C30.3962 21.1458 30.7607 20.7813 30.7607 20.4167V7.29167C30.7607 6.92708 30.3962 6.5625 30.0316 6.5625H27.8441C27.4795 6.5625 27.1149 6.92708 27.1149 7.29167V20.4167C27.1149 20.7813 27.4795 21.1458 27.8441 21.1458ZM11.4378 21.1458H13.6253C13.9899 21.1458 14.3545 20.7813 14.3545 20.4167V16.4062C14.3545 16.0417 13.9899 15.6771 13.6253 15.6771H11.4378C11.0732 15.6771 10.7087 16.0417 10.7087 16.4062V20.4167C10.7087 20.7813 11.0732 21.1458 11.4378 21.1458ZM16.9066 21.1458H19.0941C19.4587 21.1458 19.8232 20.7813 19.8232 20.4167V9.11458C19.8232 8.75 19.4587 8.38542 19.0941 8.38542H16.9066C16.542 8.38542 16.1774 8.75 16.1774 9.11458V20.4167C16.1774 20.7813 16.542 21.1458 16.9066 21.1458V21.1458ZM31.6722 24.7917H7.06283V7.47396C7.06283 6.97038 6.65495 6.5625 6.15137 6.5625H4.32845C3.82487 6.5625 3.41699 6.97038 3.41699 7.47396V26.6146C3.41699 27.6212 4.23332 28.4375 5.23991 28.4375H31.6722C32.1758 28.4375 32.5837 28.0296 32.5837 27.526V25.7031C32.5837 25.1995 32.1758 24.7917 31.6722 24.7917Z" fill="#001564"/>
</g>
</g>
<defs>
<filter id="filter0_d" x="2.41699" y="5.5625" width="33.1667" height="25.875" filterUnits="userSpaceOnUse" color-interpolation-filters="sRGB">
<feFlood flood-opacity="0" result="BackgroundImageFix"/>
<feColorMatrix in="SourceAlpha" type="matrix" values="0 0 0 0 0 0 0 0 0 0 0 0 0 0 0 0 0 0 127 0"/>
<feOffset dx="1" dy="1"/>
<feGaussianBlur stdDeviation="1"/>
<feColorMatrix type="matrix" values="0 0 0 0 0 0 0 0 0 0 0 0 0 0 0 0 0 0 0.15 0"/>
<feBlend mode="normal" in2="BackgroundImageFix" result="effect1_dropShadow"/>
<feBlend mode="normal" in="SourceGraphic" in2="effect1_dropShadow" result="shape"/>
</filter>
<clipPath id="clip0">
<rect width="35" height="35" fill="white" transform="translate(0.5)"/>
</clipPath>
</defs>
</svg>
