<svg width="1438" height="766" viewBox="0 0 1438 766" fill="none" xmlns="http://www.w3.org/2000/svg">
<path opacity="0.5" fill-rule="evenodd" clip-rule="evenodd" d="M4.47448 0.293919C4.47448 0.870391 7.77645 3.35943 11.8109 5.825C59.1125 34.7249 108.009 82.8879 133.821 126.002C137.148 131.56 142.891 140.334 146.582 145.5C166.575 173.476 182.348 209.318 226.925 328.069C259.17 413.971 276.26 456.366 295.503 498.205C302.755 513.973 303.042 515.845 298.21 515.904C293.841 515.957 258.915 436.365 220.443 338.682C176.934 228.208 162.38 196.865 140.726 167.001C137.127 162.038 130.854 152.687 126.787 146.22C99.2714 102.47 47.7358 50.3718 4.18103 22.2738C-3.32676 17.4307 1.73243 23.0546 10.0502 28.7982C54.1989 59.2854 102.611 109.656 128.302 151.837C131.934 157.799 137.272 165.791 140.165 169.596C158.737 194.021 176.429 232.218 217.919 337.462C251.889 423.627 269.285 464.564 286.727 499.38C291.03 507.97 294.387 515.14 294.186 515.313C287.309 521.287 264.403 475.146 212.661 351.082C172.204 254.08 155.486 219.825 135.249 192.463C132.384 188.589 124.821 177.494 118.444 167.808C92.1322 127.85 54.5757 87.0148 14.1339 54.3883C6.21174 47.9978 -0.900463 42.7685 -1.67167 42.7685C-3.46175 42.7685 -2.47222 43.6655 11.9999 55.1609C52.221 87.1087 92.0418 130.486 118.105 170.743C122.913 178.169 127.82 185.566 129.01 187.18C155.142 222.625 166.029 244.602 212.468 355.66C241.33 424.682 251.14 446.63 269.915 484.199C285.288 514.958 286.871 519.34 282.084 517.872C276.497 516.158 242.102 447.229 202.609 358.595C167.521 279.85 151.022 247.493 134.058 224.163C129.832 218.352 122.392 207.521 117.527 200.095C94.0291 164.241 64.1764 128.201 31.9009 96.7244C13.5575 78.835 -3.82916 63.5966 -4.79287 64.5641C-5.18375 64.955 -3.91837 66.6105 -1.98156 68.2413C40.7304 104.206 83.2018 151.892 114.407 198.921C120.191 207.638 127.99 218.997 131.738 224.163C148.943 247.88 167.484 284.296 203.235 364.59C236.119 438.448 255.357 477.89 273.165 507.97C279.011 517.842 279.388 519.452 275.852 519.433C271.499 519.41 243.822 471.158 217.271 417.299C207.243 396.958 189.128 360.239 177.014 335.701C154.756 290.616 141.589 267.142 128.939 249.993C125.127 244.827 117.043 233.204 110.973 224.163C80.7719 179.18 28.6576 117.308 -0.611702 91.6864C-14.1248 79.8576 -9.17476 86.0908 10.4352 105.596C47.8544 142.813 82.1899 184.349 108.85 224.648C114.153 232.664 120.244 241.381 122.386 244.021C138.249 263.565 157.613 298.767 193.611 373.499C229.159 447.299 244.84 477.041 264.368 507.703C270.446 517.245 271.796 520.119 270.346 520.422C267.481 521.018 265.862 519.177 254.645 502.561C233.45 471.165 219.065 446.065 185.258 381.49C153.083 320.033 138.881 295.783 121.309 272.301C115.994 265.197 107.015 252.517 101.355 244.123C74.2513 203.921 11.9729 127.287 -8.28617 109.208C-15.085 103.142 -10.3392 109.453 1.78877 122.606C38.4121 162.327 72.2112 204.635 100.286 245.901C106.662 255.273 115.637 267.953 120.228 274.079C137.155 296.658 150.113 318.704 180.259 376.206C220.071 452.146 244.475 494.026 261.907 516.324C264.713 519.913 265.105 521.042 263.822 521.834C258.173 525.326 221.261 471.456 178.519 397.34C144.63 338.578 131.171 317.197 115.19 296.732C110.554 290.797 103.984 281.814 100.591 276.773C81.4985 248.408 51.2585 207.455 27.4991 177.787C8.09456 153.557 -13.2655 128.476 -14.4957 128.476C-15.8468 128.476 -16.4454 127.714 6.26221 154.908C36.473 191.086 68.7625 233.707 94.3097 271.126C100.04 279.521 107.458 289.824 110.791 294.021C126.232 313.459 142.367 338.607 168.796 384.425C211.608 458.641 228.965 485.637 252.355 514.376C263.004 527.462 258.653 526.862 245.777 513.47C223.766 490.578 203.549 462.856 164.088 401.449C136.809 359.003 122.473 338.102 108.93 321.036C104.055 314.896 94.0385 301.154 86.6692 290.499C58.204 249.343 -13.3348 152.249 -16.7495 150.138C-19.2591 148.587 -17.4655 152.008 -12.3676 158.503C10.5972 187.754 63.0472 259.502 88.4182 296.369C93.5279 303.795 101.691 314.89 106.557 321.025C120.758 338.928 132.889 356.604 162.63 402.728C205.27 468.856 221.143 490.404 249.683 520.911C258.241 530.06 249.385 525.455 236.892 514.26C215.59 495.173 192.754 468.195 163.263 427.279C123.78 372.499 116.355 362.431 105.045 348.331C95.0374 335.856 69.6312 299.851 -11.7736 182.777C-15.9266 176.805 -19.812 171.917 -20.4071 171.917C-21.8309 171.917 -24.2889 168.255 13.885 222.989C32.3505 249.465 57.1651 285.127 69.0302 302.24C80.894 319.352 96.4871 340.749 103.68 349.79C117.216 366.798 129.428 383.291 152.368 415.538C188.562 466.414 216.477 499.693 239.031 518.857C248.575 526.965 248.567 530.118 239.018 524.013C209.677 505.253 178.032 472.561 128.901 410.255C118.973 397.663 105.22 380.492 98.3406 372.097C79.8892 349.579 31.4267 278.635 -7.72391 216.825C-16.0076 203.749 -23.3147 193.05 -23.9626 193.05C-24.6106 193.05 -24.3758 194.24 -23.4391 195.692C-22.5035 197.146 -15.2 208.636 -7.20977 221.228C43.3304 300.876 78.0804 350.208 123.592 406.914C176.949 473.399 198.483 496.453 227.404 518.054C244.616 530.91 243.911 533.425 225.925 523.328C154.978 483.499 74.8394 387.861 -10.932 240.658C-19.5126 225.933 -26.7082 214.412 -26.923 215.056C-27.9172 218.039 16.7116 291.888 47.0515 337.462C70.0033 371.939 79.6967 384.899 103.69 413.19C159.632 479.153 188.229 505.417 226.178 525.686C241.771 534.014 235.238 534.257 215.088 526.098C136.094 494.111 57.88 403.436 -20.2791 253.234C-25.0648 244.038 -29.3798 236.51 -29.8693 236.503C-32.0808 236.474 -2.71402 291.147 18.1214 325.847C84.7524 436.817 154.086 507.127 219.578 530.141C233.467 535.021 227.558 536.356 209.624 532.389C123.223 513.28 38.8593 418.659 -28.8152 264.963C-30.5924 260.926 -32.5151 257.625 -33.0879 257.625C-36.4709 257.625 -0.970898 327.816 21.2449 365.053C82.0291 466.933 141.738 520.465 210.224 534.481C222.949 537.087 222.238 538.229 207.891 538.229C114.589 538.229 29.8385 448.235 -34.8041 280.519C-35.3323 279.149 -35.9262 278.751 -36.2314 279.563C-38.4523 285.475 4.8372 373.62 28.7703 411.921C82.1993 497.423 129.953 534.232 194.408 539.598C213.627 541.198 213.602 541.919 194.237 544.556C137.125 552.331 105.536 538.779 61.5189 487.618C27.4791 448.054 -11.3909 377.026 -33.6643 313.687C-36.1058 306.744 -38.6155 301.065 -39.2423 301.065C-39.8691 301.065 -40.0064 301.991 -39.5463 303.12C-39.0862 304.251 -37.5191 308.609 -36.0624 312.806C19.6978 473.503 98.4192 555.422 189.352 547.377L198.743 546.547L187.004 550.661C139.859 567.188 114.171 564.557 83.5692 540.068C38.7561 504.205 -7.24851 427.235 -35.5976 340.691C-41.813 321.716 -45.8274 314.491 -40.4901 331.885C8.77068 492.408 90.1719 580.256 169.363 558.356C186.437 553.634 186.127 554.206 166.287 564.023C134.977 579.518 116.396 582.617 97.9567 575.426C47.0808 555.582 -15.5334 456.152 -41.9151 353.312C-43.9798 345.266 -46 340.996 -46 344.681C-46 347.122 -37.8267 374.719 -32.143 391.469C2.55058 493.716 63.789 574.682 110.701 580.331C128.529 582.478 142.944 578.203 177.614 560.485C250.914 523.025 267.331 528.495 365.829 623.197C464.035 717.617 526.533 718.162 622.033 625.427C629.527 618.15 635.927 612.196 636.253 612.196C636.581 612.196 644.975 616.689 654.907 622.181C742.052 670.364 796.775 653.077 924.753 536.939C985.892 481.458 1011.53 462.91 1063.26 436.719C1143.22 396.246 1190.38 390.471 1259.78 412.661L1274.55 417.386L1274.72 430.551C1275.24 471.472 1268.83 514.435 1255.74 557.601C1238.6 614.15 1249.21 650.042 1297.43 698.609C1340.39 741.874 1386.88 766 1427.3 766C1440.56 766 1436.42 764.051 1421.57 763.298C1339.8 759.156 1241.84 660.864 1249.92 591.052C1251.71 575.586 1253.2 572.024 1253.34 582.844C1254.32 657.239 1375.22 758.217 1438.89 737.822C1442.75 736.585 1441.79 736.492 1426.5 736.64C1340.56 737.47 1235.6 628.921 1257.35 561.711L1259.06 556.427L1259.18 564.723C1260.22 639.107 1362.51 722.578 1439.18 711.614C1442.89 711.084 1445.93 710.097 1445.93 709.422C1445.93 708.711 1444.82 708.511 1443.29 708.947C1384.4 725.681 1281.52 655.49 1263.88 586.538C1260.6 573.712 1259.6 555.009 1261.95 550.518L1263.76 547.062L1264.55 552.918C1275.02 630.904 1376.52 703.53 1447.4 683.758C1449.82 683.083 1451.8 682.026 1451.8 681.411C1451.8 680.031 1452.33 679.969 1445.34 682.139C1378.34 702.937 1268.83 621.655 1266.22 549.18C1265.76 536.381 1268.91 533.843 1271.47 544.952C1283.49 597.091 1340.92 648.968 1398.66 659.838C1417.31 663.348 1450.91 660.191 1457.02 654.352C1458.7 652.753 1456.8 653.041 1448.53 655.633C1383.15 676.133 1287.77 614.671 1272.85 542.433C1271.02 533.556 1273.88 520.921 1276.19 527.69C1303.47 607.622 1391.64 657.345 1456.79 629.549C1459.86 628.24 1462.37 626.65 1462.37 626.015C1462.37 625.38 1461.7 625.151 1460.9 625.505C1416.19 645.199 1365.79 633.744 1321.4 593.798C1295 570.039 1272.49 530.83 1279.17 520.219C1281.98 515.743 1282.75 516.308 1286.95 525.972C1316.89 594.869 1426.77 639.417 1467.59 599.206C1469.56 597.265 1466.22 597.99 1462.14 600.388C1408.31 632.013 1317.57 591.735 1287.87 523.032L1283.77 513.545L1286.3 509.45C1289.48 504.301 1288.54 503.669 1295.47 515.628C1324.88 566.388 1385.42 598.082 1434.12 588.212C1449.98 584.997 1472.93 574.763 1472.93 570.902C1472.93 570.24 1471.21 570.848 1469.11 572.254C1416 607.829 1331.48 578.501 1295.66 512.061L1290.73 502.916L1293.86 498.188L1296.99 493.459L1301.77 500.875C1331.34 546.747 1385.28 573.806 1431.2 565.796C1448.41 562.795 1476.69 549.292 1478.56 543.181C1478.81 542.352 1475.67 544.005 1471.57 546.853C1419.9 582.782 1344.05 562.104 1304.41 501.281L1297.99 491.43L1301.14 486.206L1304.3 480.982L1309.54 488.179C1353.46 548.496 1439.93 563.333 1482.23 517.809C1486.75 512.95 1483.99 514.236 1476.09 520.673C1428.18 559.725 1354.25 544.757 1311.39 487.325L1305.38 479.273L1307.81 473.512C1310.73 466.602 1310.04 466.399 1318.91 476.759C1353.99 517.717 1407.65 533.372 1451.64 515.489C1464.33 510.334 1489.36 491.93 1489.36 487.761C1489.36 486.985 1485.73 489.701 1481.29 493.797C1436.38 535.25 1375.02 529.853 1325.44 480.089L1311.18 465.777L1312.26 460.03C1312.85 456.869 1313 452.726 1312.58 450.824C1311.94 447.861 1313.21 448.829 1321.49 457.577C1373.77 512.82 1440.54 516.942 1488.71 467.903C1492.55 463.997 1495.33 460.45 1494.9 460.02C1494.48 459.59 1491.69 461.947 1488.72 465.255C1434.12 525.994 1340.78 504.07 1299.65 420.847C1284.58 390.368 1283.16 386.424 1292.32 400.553C1339.75 473.729 1408.12 500.218 1463.86 467.015C1476.72 459.358 1505.25 431.388 1500.21 431.388C1499.67 431.388 1497.21 434.047 1494.73 437.297C1442.17 506.238 1352.52 488.753 1293.08 397.967C1282.12 381.224 1258.12 334.13 1258.12 329.364C1258.12 329.006 1261.82 335.256 1266.34 343.252C1324.39 445.95 1403.74 487.492 1465.23 447.382C1479.82 437.864 1505.8 411.008 1505.8 405.443C1505.8 403.157 1503.89 404.695 1500.88 409.417C1444.76 497.265 1339.83 468.078 1269.63 345.093C1261.02 330.008 1246.14 301.948 1249.01 306.196C1249.82 307.403 1256.64 317.706 1264.15 329.091C1331.35 430.882 1404.4 465.632 1466.5 425.349C1482.49 414.979 1514.63 379.79 1511.12 376.507C1510.6 376.019 1509.91 376.344 1509.6 377.23C1506.34 386.424 1481.26 413.144 1466.98 422.638C1399.13 467.753 1325.63 426.361 1247.03 298.77C1240.08 287.498 1232.32 275.215 1229.78 271.473C1227.24 267.731 1225.41 264.669 1225.72 264.669C1226.02 264.669 1231.93 272.991 1238.85 283.161C1344.76 438.875 1449.2 466.338 1513.82 355.471C1519.2 346.244 1516.73 346.944 1510.98 356.276C1444.11 464.769 1346.41 437.009 1238.15 278.758C1175.83 187.652 1137.45 169.683 1041.29 186.581C922.079 207.529 883.135 238.238 800.439 376.5C785.473 401.523 772.937 421.995 772.58 421.995C772.224 421.995 773.229 419.749 774.814 417.006C779.834 408.307 791.335 387.081 806.78 358.008C876.505 226.758 913.27 195.902 1026.29 173.787C1126.4 154.197 1158.78 167.305 1221.74 252.928C1347.54 423.988 1456.79 451.447 1519.45 327.757C1524.35 318.092 1521.76 320.287 1515.32 331.259C1454.72 434.486 1361.8 422.863 1259.78 299.294C1247.67 284.617 1242.86 278.319 1214.19 239.59C1158.16 163.892 1116.13 150.728 1009.42 175.456C905.425 199.556 874.279 227.666 802.183 362.495C737.056 484.29 713.86 515.4 667.035 543.755C618.984 572.854 573.221 572.246 482.808 541.307C424.953 521.509 385.807 514.294 335.809 514.211L305.02 514.16L296.751 496.293C276.341 452.186 264.48 422.665 226.104 320.438C181.508 201.648 170.787 177.948 142.593 135.853C139.903 131.839 134.172 123.121 129.853 116.481C108.575 83.7555 76.8784 50.5961 41.45 24.0009C21.124 8.74258 4.47448 -1.93331 4.47448 0.293919ZM1120.26 185.392C1160.61 191.937 1190.3 213.19 1221.18 257.625C1226.91 265.862 1225.36 264.367 1214.31 250.988C1172.98 200.938 1118.38 187.634 1030.4 206.177C927.053 227.954 884.996 260.867 804.124 383.251C781.266 417.841 759.684 448.999 758.582 448.999C758.26 448.999 759.951 445.962 762.337 442.248C775.757 421.37 784.362 407.366 801.552 378.424C854.958 288.508 878.628 258.89 918.297 232.351C967.374 199.52 1066 176.589 1120.26 185.392ZM1125.21 201.93C1166.85 208.115 1196.23 227.937 1226.9 270.539C1227.6 271.508 1223.09 267.017 1216.89 260.56C1176.22 218.237 1127.56 206.168 1051.42 219.527C973.853 233.135 918.52 261.467 872.067 311.36C851.693 333.241 851.581 333.385 786.48 420.666C770.661 441.876 753.069 463.618 741.705 476.003C739.039 478.909 741.782 474.917 747.802 467.133C763.6 446.702 780.417 422.652 806.458 383.251C861.443 300.052 889.961 268.581 933.701 242.834C983.635 213.439 1073.49 194.248 1125.21 201.93ZM1132.52 218.259C1174.79 224.755 1203.25 243.237 1232.8 283.393C1233.49 284.328 1229.04 280.046 1222.91 273.876C1179.77 230.483 1123.99 220.359 1036.27 239.998C969.3 254.99 925.562 279.014 877.12 327.413C854.149 350.364 846.185 359.483 810.919 403.21C773.977 449.018 747.391 478.706 731.768 491.591C726.632 495.828 727.194 494.973 735.768 485.507C758.725 460.165 768.518 448.137 792.503 415.831C801.971 403.077 817.278 382.469 826.517 370.032C872.74 307.815 907.614 275.067 950.617 253.495C1004.71 226.364 1084.58 210.892 1132.52 218.259ZM1144.84 234.744C1180.2 240.97 1215.05 262.574 1234.4 290.269L1239.45 297.483L1229.71 287.778C1185.94 244.161 1125.87 235.137 1033.33 258.28C951.777 278.677 905.64 311.098 822.077 406.732C781.146 453.575 722.959 510.545 719.539 507.125C719.315 506.901 730.456 495.448 744.295 481.674C770.645 455.451 779.218 445.681 817.26 398.514C868.861 334.538 894.908 308.509 931.209 284.645C988.53 246.963 1085.54 224.303 1144.84 234.744ZM1152.09 250.096C1186.2 255.921 1222.91 277.677 1239.49 301.897L1243.34 307.523L1234.37 299.304C1194.03 262.349 1140.81 252.592 1065.03 268.257C972.996 287.281 923.024 317.612 841.782 403.755C779.625 469.659 753.898 492.992 720.801 513.476C704.801 523.379 708.034 519.122 728.658 503.131C755.947 481.974 778.414 459.479 822.007 409.668C884.485 338.278 915.702 310.692 959.968 287.755C1017.61 257.888 1101.46 241.451 1152.09 250.096ZM1160.83 265.2C1193.72 270.973 1230.88 292.948 1246.33 315.755L1250.3 321.612L1242.71 314.403C1193.98 268.131 1100.58 263.758 1002.81 303.168C951.181 323.982 917.3 348.921 847.874 417.213C773.811 490.067 741.989 515.088 705.97 528.785C699.818 531.125 706.052 524.624 715.01 519.359C744.846 501.823 764.033 485.742 805.023 443.917C906.763 340.104 923.691 325.457 967.752 303.114C1028.09 272.518 1110.43 256.35 1160.83 265.2ZM1229.36 274.062C1229.76 274.707 1229.82 275.236 1229.5 275.236C1229.18 275.236 1228.59 274.707 1228.19 274.062C1227.79 273.416 1227.73 272.888 1228.05 272.888C1228.37 272.888 1228.96 273.416 1229.36 274.062ZM1231.71 277.584C1232.11 278.23 1232.17 278.758 1231.85 278.758C1231.52 278.758 1230.93 278.23 1230.53 277.584C1230.14 276.938 1230.07 276.41 1230.4 276.41C1230.72 276.41 1231.31 276.938 1231.71 277.584ZM1165.36 279.397C1204.15 285.691 1244.73 311.03 1257.38 336.87C1261.64 345.578 1260.94 345.864 1254.65 337.978C1218.2 292.29 1153.79 277.902 1075.96 298.061C981.529 322.522 946.382 343.781 849.629 434.967C788.473 492.602 767.183 509.248 734.007 525.362C720.265 532.037 698.555 540.144 697.43 539.02C695.636 537.224 701.561 533.164 716.802 525.747C755.38 506.973 776.375 490.142 842.56 424.931C913.205 355.323 940.754 334.008 988.974 311.643C1019.43 297.514 1072.09 283.538 1114.33 278.367C1124.43 277.13 1155.21 277.751 1165.36 279.397ZM1235.23 286.977C1235.63 287.622 1235.69 288.151 1235.37 288.151C1235.05 288.151 1234.46 287.622 1234.06 286.977C1233.66 286.331 1233.59 285.802 1233.92 285.802C1234.24 285.802 1234.83 286.331 1235.23 286.977ZM1169.5 291.713C1199.55 297.063 1241.43 322.204 1256.96 344.214L1260.9 349.79L1253.84 343.144C1212.1 303.862 1156.77 293.479 1086.09 311.663C995.446 334.986 951.513 360.914 861.367 444.29C785.652 514.318 751.254 536.548 702.342 547.062C695.256 548.586 689.286 549.659 689.076 549.448C687.143 547.516 695.786 542.378 707.998 538.202C753.686 522.58 778.929 504.529 852.563 434.834C944.461 347.85 976.669 328.019 1067.78 302.322C1108.66 290.79 1143.76 287.129 1169.5 291.713ZM1245.79 299.891C1246.19 300.537 1246.26 301.065 1245.93 301.065C1245.61 301.065 1245.02 300.537 1244.62 299.891C1244.22 299.246 1244.16 298.717 1244.48 298.717C1244.8 298.717 1245.4 299.246 1245.79 299.891ZM1178.3 306.508C1202.27 311.329 1238.31 330.3 1254.68 346.712C1264.2 356.247 1268.4 362.994 1260.06 355.344C1217.54 316.325 1155.84 307.023 1083.25 328.684C996.286 354.635 961.36 375.325 877.214 450.74C795.818 523.688 766.006 543.449 721.349 554.057C709.749 556.812 683.152 559.96 681.916 558.724C679.417 556.224 688.191 551.893 701.041 549.281C751.849 538.956 782.298 519.339 864.888 443.722C945.193 370.196 975.12 350.364 1038.15 328.896C1106.71 305.546 1143.95 299.598 1178.3 306.508ZM1244.62 309.284C1245.02 309.93 1245.08 310.458 1244.76 310.458C1244.44 310.458 1243.85 309.93 1243.45 309.284C1243.05 308.638 1242.99 308.11 1243.31 308.11C1243.63 308.11 1244.22 308.638 1244.62 309.284ZM1183.99 320.561C1208.8 325.68 1251.96 347.635 1263.4 360.966C1265.39 363.279 1264.93 363.149 1260.47 360.127C1210.98 326.652 1151.23 322.95 1074.42 348.602C999.077 373.76 966.448 392.975 900.773 450.857C889.843 460.49 873.204 475.161 863.798 483.458C789.844 548.695 747.992 569.502 692.729 568.508L673.754 568.168L676.701 564.744C679.505 561.485 680.275 561.274 692.741 560.345C748.588 556.183 787.544 534.195 868.476 461.153C959.116 379.348 986.7 362.194 1072.66 334.173C1119.38 318.942 1155.01 314.585 1183.99 320.561ZM1196.49 336.189C1224.87 343.249 1255.01 356.525 1264.87 366.314C1272.31 373.702 1269.49 374.07 1256.65 367.384C1199.92 337.842 1146.34 337.604 1069.72 366.553C994.265 395.063 970.583 409.99 895.995 476.053C791.413 568.681 750.015 588.889 683.532 579.766C667.584 577.577 666.76 577.204 669.745 573.517C671.838 570.932 672.562 570.85 695.909 570.544C756.048 569.759 791.089 550.751 883.065 469.023C967.931 393.613 996.056 376.336 1076.76 350.03C1126.56 333.799 1167.74 329.038 1196.49 336.189ZM1193.56 348.121C1211.67 350.918 1245.51 362.773 1260.68 371.635C1269.28 376.658 1269.2 376.583 1270.26 381.034L1271 384.102L1260.74 379.12C1203.36 351.245 1151.65 351.323 1078.52 379.395C1060.02 386.501 1013.07 407.368 1004.57 412.267C976.858 428.244 950.803 448.602 895.995 497.106C791.792 589.324 744.292 608.78 671.611 589.021L659.69 585.779L662.4 582.38L665.11 578.982L679.017 581.206C742.571 591.372 791.555 570.491 873.798 498.178C882.895 490.179 897.949 476.943 907.252 468.765C963.771 419.078 991.17 400.693 1036.72 381.89C1110.31 351.512 1154.25 342.051 1193.56 348.121ZM1272.58 366.204C1274.56 370.233 1275.27 372.595 1274.25 371.745C1272.41 370.22 1268.34 361.458 1267.05 356.247L1266.32 353.312L1267.73 356.247C1268.5 357.861 1270.68 362.343 1272.58 366.204ZM1209.99 363.825C1241.3 371.684 1269.45 383.376 1271.53 389.391C1273.18 394.149 1272.37 394.166 1261.56 389.605C1190.26 359.524 1137.16 365.57 1034.51 415.46C991.132 436.541 973.889 449.092 907.671 507.782C792.616 609.756 744.622 628.121 667.407 599.719C659.521 596.818 652.971 594.343 652.852 594.221C652.733 594.097 653.818 592.518 655.262 590.711L657.888 587.425L674.232 591.658C746.764 610.443 793.406 590.761 899.516 496.589C950.633 451.224 988.43 422.121 1010.47 411.158C1096.97 368.121 1163.87 352.249 1209.99 363.825ZM1217.62 377.815C1250.98 386.131 1271.63 394.39 1272.84 399.9C1273.9 404.74 1273.72 404.761 1263.76 400.927C1188.43 371.91 1130.69 380.751 1026.04 437.322C995.67 453.741 971.94 471.349 931.209 507.685C920.234 517.477 903.331 532.511 893.647 541.096C795.175 628.392 739.578 645.207 663.184 610.8C643.846 602.091 644.591 602.676 647.945 598.806L650.665 595.668L665.15 601.008C744.227 630.162 793.343 612.044 905.385 512.39C969.339 455.508 991.214 439.132 1027.2 421.206C1086.49 391.664 1120.63 379.9 1165.97 373.379C1177.47 371.727 1201.47 373.789 1217.62 377.815ZM1274.16 385.208C1273.73 385.638 1273.38 385.286 1273.38 384.425C1273.38 383.564 1273.73 383.212 1274.16 383.642C1274.59 384.073 1274.59 384.777 1274.16 385.208ZM1219.31 390.32C1254.13 397.948 1272.93 405.113 1273.62 411.013C1274.01 414.317 1273.75 414.988 1272.27 414.499C1198.96 390.136 1158.88 391.905 1088.35 422.614C1028.78 448.549 991.511 473.827 928.22 531.232C795.374 651.72 744.449 668.384 655.716 620.399L637.292 610.435L640.508 607.178L643.724 603.921L661.28 611.999C744.32 650.203 794.637 632.538 918.297 521.768C973.514 472.307 993.751 457.011 1029.22 437.924C1114.32 392.14 1167.18 378.9 1219.31 390.32ZM1282.73 391.987C1282.71 392.672 1281.92 392.204 1280.97 390.952C1280.02 389.698 1279.27 388.113 1279.29 387.429C1279.31 386.745 1280.1 387.212 1281.05 388.465C1281.99 389.719 1282.75 391.304 1282.73 391.987ZM1285.12 389.121C1285.81 390.413 1286.11 391.469 1285.79 391.469C1285.46 391.469 1284.64 390.413 1283.94 389.121C1283.25 387.83 1282.95 386.773 1283.27 386.773C1283.6 386.773 1284.43 387.83 1285.12 389.121ZM1279.25 395.717C1279.25 397.375 1278.74 398.337 1278.07 397.927C1277.43 397.528 1276.9 395.88 1276.9 394.266C1276.9 392.608 1277.41 391.647 1278.07 392.056C1278.72 392.456 1279.25 394.103 1279.25 395.717ZM1282.04 399.162C1282.44 400.207 1282.25 400.678 1281.58 400.267C1280.94 399.872 1280.42 399.053 1280.42 398.445C1280.42 396.756 1281.26 397.128 1282.04 399.162ZM1287.89 402.623C1288.26 403.592 1288.05 404.384 1287.43 404.384C1286.8 404.384 1286.29 403.592 1286.29 402.623C1286.29 401.655 1286.5 400.862 1286.75 400.862C1287.01 400.862 1287.52 401.655 1287.89 402.623ZM1283.94 406.876C1283.94 409.881 1283.65 410.297 1282.3 409.182C1281.4 408.432 1280.94 406.783 1281.27 405.515C1282.21 401.922 1283.94 402.806 1283.94 406.876ZM1277.68 406.341C1277.25 406.771 1276.9 406.419 1276.9 405.558C1276.9 404.698 1277.25 404.345 1277.68 404.775C1278.11 405.206 1278.11 405.911 1277.68 406.341ZM1279.17 412.309C1279.09 415.17 1278.97 415.27 1278.07 413.19C1276.7 409.983 1276.7 409.081 1278.07 409.081C1278.72 409.081 1279.21 410.534 1279.17 412.309ZM1287.91 410.903C1288.31 411.948 1288.12 412.418 1287.45 412.008C1286.81 411.613 1286.29 410.794 1286.29 410.185C1286.29 408.497 1287.13 408.869 1287.91 410.903ZM1293.72 415.226C1294.37 417.792 1294.33 417.806 1292.69 415.607C1290.8 413.083 1290.41 410.936 1292.02 411.928C1292.59 412.279 1293.35 413.763 1293.72 415.226ZM1283.55 414.56C1283.12 414.99 1282.77 414.637 1282.77 413.777C1282.77 412.916 1283.12 412.564 1283.55 412.994C1283.98 413.425 1283.98 414.129 1283.55 414.56ZM1281.94 416.125C1282.27 417.416 1282.07 418.473 1281.49 418.473C1280.9 418.473 1280.42 417.416 1280.42 416.125C1280.42 414.834 1280.63 413.777 1280.87 413.777C1281.12 413.777 1281.6 414.834 1281.94 416.125ZM1289.08 419.28C1288.22 422.557 1285.12 421.52 1285.12 417.957C1285.12 416.518 1285.48 414.978 1285.93 414.532C1287.38 413.076 1289.76 416.662 1289.08 419.28ZM1294.47 424.193C1294.5 425.493 1294.17 425.522 1292.75 424.344C1291.78 423.539 1291.01 421.494 1291.03 419.797L1291.07 416.712L1292.75 419.647C1293.67 421.262 1294.44 423.308 1294.47 424.193ZM1277.71 425.224C1277.42 426.354 1277.17 425.43 1277.17 423.169C1277.17 420.909 1277.42 419.985 1277.71 421.115C1278.01 422.244 1278.01 424.095 1277.71 425.224ZM1282.77 423.826C1282.77 425.529 1282.26 426.517 1281.6 426.105C1280.95 425.705 1280.42 424.354 1280.42 423.1C1280.42 421.846 1280.95 420.821 1281.6 420.821C1282.24 420.821 1282.77 422.174 1282.77 423.826ZM770.982 425.518C770.291 426.809 769.462 427.866 769.139 427.866C768.817 427.866 769.117 426.809 769.808 425.518C770.5 424.226 771.329 423.169 771.651 423.169C771.974 423.169 771.674 424.226 770.982 425.518ZM1286.8 433.171C1285.3 441.16 1282.49 436.298 1283.64 427.71L1284.3 422.847L1285.93 425.965C1286.97 427.95 1287.28 430.57 1286.8 433.171ZM1293.24 427.166C1294.05 428.141 1294.28 430.126 1293.81 432.022L1293 435.228L1291.45 432.427C1288.58 427.248 1289.96 423.207 1293.24 427.166ZM1280.42 433.384C1280.42 436.606 1280.08 437.386 1279.1 436.405C1278.35 435.658 1278.11 433.768 1278.53 432.061C1279.61 427.759 1280.42 428.325 1280.42 433.384ZM1299.89 436.084C1299.53 438.344 1299.22 441.119 1299.22 442.248C1299.2 445.253 1297.44 444.757 1295.87 441.304C1293.64 436.422 1295.34 428.816 1298.25 430.584C1300.08 431.689 1300.41 432.822 1299.89 436.084ZM1290.88 444.113L1289.37 449.506L1287.8 445.669C1286.55 442.591 1286.51 440.895 1287.65 437.106L1289.07 432.38L1290.73 435.55C1292.11 438.202 1292.14 439.597 1290.88 444.113ZM1305.04 444.987C1305.08 453.465 1304.21 454.831 1301.54 450.464C1300.09 448.087 1299.83 446.313 1300.56 443.724C1301.11 441.79 1301.55 438.652 1301.55 436.748C1301.55 433.453 1301.63 433.397 1303.27 435.567C1304.34 436.973 1305.01 440.578 1305.04 444.987ZM1283.35 445.336C1282.14 451.813 1279.96 447.943 1281 441.162C1281.8 435.97 1281.96 435.743 1282.98 438.432C1283.59 440.047 1283.76 443.153 1283.35 445.336ZM1277.71 446.335C1277.42 447.478 1277.15 446.827 1277.13 444.89C1277.11 442.953 1277.35 442.018 1277.67 442.813C1277.99 443.608 1278.01 445.193 1277.71 446.335ZM1296.77 448.343C1296.55 454.21 1293.83 459.17 1292.35 456.403C1289.62 451.287 1292.29 439.686 1295.27 443.76C1296.14 444.951 1296.82 447.014 1296.77 448.343ZM1310.89 454.38C1310.95 461.543 1310.13 462.699 1307.43 459.232C1305.67 456.963 1305.57 455.671 1306.67 449.113C1308.18 440.083 1310.79 443.342 1310.89 454.38ZM1287.92 452.646C1287.71 453.037 1286.94 454.886 1286.21 456.755L1284.88 460.153L1283.81 457.381C1283.14 455.63 1283.23 452.825 1284.05 449.763L1285.36 444.918L1286.84 448.426C1287.65 450.355 1288.14 452.255 1287.92 452.646ZM758.07 450.617C758.07 450.86 757.145 451.785 756.016 452.672C754.154 454.131 754.113 454.09 755.572 452.228C757.107 450.272 758.07 449.651 758.07 450.617ZM1279.38 458.438C1278.33 461.057 1278.22 460.88 1278.15 456.533C1278.11 453.896 1278.47 451.336 1278.96 450.844C1280.34 449.438 1280.66 455.226 1279.38 458.438ZM1301.75 454.248C1302.8 456.552 1302.65 458.263 1301 462.563L1298.94 467.977L1296.91 464.652C1295.08 461.651 1295.04 460.841 1296.56 456.337C1298.49 450.645 1299.86 450.093 1301.75 454.248ZM754.549 455.387C754.549 455.673 753.938 456.282 753.193 456.742C752.354 457.262 752.157 457.065 752.677 456.226C753.512 454.872 754.549 454.408 754.549 455.387ZM1292.16 460.415C1292.16 461.281 1291.31 463.953 1290.27 466.354L1288.38 470.72L1287.19 467.352C1285.4 462.283 1288.16 453.375 1290.52 456.601C1291.42 457.833 1292.16 459.549 1292.16 460.415ZM1282.23 466.88L1280.62 470.72L1279.87 467.739C1278.76 463.337 1281.44 456.76 1282.84 460.423C1283.5 462.124 1283.29 464.384 1282.23 466.88ZM1308.57 465.69C1308.6 468.064 1304.98 476.003 1303.87 476.003C1301.22 476.003 1300.43 469.702 1302.4 464.16L1304.46 458.368L1306.5 461.022C1307.62 462.481 1308.55 464.582 1308.57 465.69ZM1295.13 474.76C1293.96 477.345 1292.59 479.206 1292.09 478.892C1289.93 477.559 1289.77 471.482 1291.78 467.265L1293.86 462.901L1295.55 466.48C1297.07 469.683 1297.02 470.551 1295.13 474.76ZM1276.53 466.831C1276.15 467.767 1275.88 467.489 1275.82 466.121C1275.77 464.883 1276.05 464.191 1276.44 464.58C1276.83 464.97 1276.87 465.983 1276.53 466.831ZM1285.26 476.874L1282.98 481.286L1282.18 478.12C1281.73 476.379 1282.02 472.987 1282.81 470.583L1284.26 466.213L1285.89 469.338C1287.35 472.109 1287.27 472.961 1285.26 476.874ZM1279.23 473.361C1279.21 476.087 1277.37 478.89 1276.52 477.506C1275.61 476.039 1276.9 471.307 1278.21 471.307C1278.78 471.307 1279.24 472.232 1279.23 473.361ZM1302.69 478.938C1302.7 479.584 1301.46 482.183 1299.93 484.716L1297.14 489.319L1295.37 485.94C1293.74 482.831 1293.8 482.154 1296.07 477.478L1298.54 472.393L1300.61 475.079C1301.74 476.556 1302.68 478.292 1302.69 478.938ZM1290.99 481.482C1290.99 482.312 1289.98 484.646 1288.75 486.671C1285.21 492.488 1282.75 487.259 1285.82 480.449C1287.9 475.82 1290.99 476.435 1290.99 481.482ZM1280.4 486.634C1278.16 492.036 1276.21 488.102 1278.18 482.147C1279.53 478.049 1279.68 477.947 1280.77 480.38C1281.57 482.181 1281.46 484.071 1280.4 486.634ZM1274.98 485.983C1274.61 486.951 1274.09 487.744 1273.84 487.744C1273.59 487.744 1273.38 486.951 1273.38 485.983C1273.38 485.014 1273.89 484.221 1274.52 484.221C1275.14 484.221 1275.35 485.014 1274.98 485.983ZM1294.46 488.242C1296.65 492.339 1291.58 501.14 1289.03 497.658C1286.97 494.836 1287.05 493.353 1289.52 489.02C1292 484.661 1292.5 484.581 1294.46 488.242ZM1283.94 490.081C1285.28 492.587 1282.68 499.484 1280.39 499.484C1278.82 499.484 1278.95 494.374 1280.61 490.734C1282.25 487.137 1282.35 487.117 1283.94 490.081ZM1275.18 497.312C1273.62 500.916 1273.47 500.999 1273.44 498.31C1273.39 493.217 1274.74 489.534 1275.89 491.602C1276.5 492.685 1276.22 494.914 1275.18 497.312ZM1286.2 506.097C1282.1 512.73 1279.69 506.576 1283.5 499.205L1285.41 495.52L1287.09 498.727C1288.61 501.644 1288.53 502.313 1286.2 506.097ZM1276.99 506.92L1275.14 510.246L1274.76 507.088C1274.55 505.35 1275.07 502.268 1275.91 500.239L1277.45 496.549L1278.14 500.072C1278.57 502.266 1278.14 504.848 1276.99 506.92ZM1271.83 504.401C1271.46 505.337 1271.18 505.059 1271.12 503.691C1271.07 502.454 1271.35 501.761 1271.74 502.151C1272.13 502.541 1272.17 503.554 1271.83 504.401ZM1279.74 515.628C1278.62 517.727 1277.26 519.444 1276.72 519.444C1275.06 519.444 1275.61 513.677 1277.66 509.725L1279.59 505.994L1280.68 508.903C1281.49 511.053 1281.24 512.808 1279.74 515.628ZM1273.34 512.106C1273.27 515.329 1269.95 520.745 1269.92 517.683C1269.88 514.133 1271.17 510.051 1272.34 510.051C1272.91 510.051 1273.36 510.976 1273.34 512.106ZM713.465 511.743C713.465 512.028 712.854 512.638 712.109 513.098C711.27 513.618 711.073 513.421 711.593 512.581C712.428 511.228 713.465 510.764 713.465 511.743ZM353.011 515.942C384.302 517.845 415.566 523.263 448.518 532.495C470.687 538.705 469.987 539.225 446.356 534.1C406.457 525.447 371.82 521.651 334.486 521.84C314.775 521.94 309.115 521.63 308.343 520.412C305.959 516.649 307.269 516.012 318.179 515.622C324.151 515.41 330.094 515.13 331.385 515.001C332.676 514.873 342.408 515.296 353.011 515.942ZM305.934 520.031C307.188 522.784 307.065 522.966 303.963 522.966C301.574 522.966 300.284 522.151 299.318 520.031C298.065 517.278 298.187 517.096 301.289 517.096C303.678 517.096 304.968 517.91 305.934 520.031ZM1272.95 526.129C1270.15 531.437 1268.93 526.272 1271.7 520.805C1273.87 516.523 1273.88 516.519 1274.29 519.672C1274.51 521.412 1273.91 524.317 1272.95 526.129ZM297.218 520.127C299.088 525.002 294.286 525.625 291.173 520.911C289.495 518.37 289.563 518.27 292.967 518.27C295.111 518.27 296.786 519.001 297.218 520.127ZM708.77 518.652C708.77 518.863 707.318 520.315 705.542 521.881L702.314 524.727L705.159 521.498C707.819 518.481 708.77 517.731 708.77 518.652ZM289.645 521.663C290.614 523.474 290.369 524.002 288.307 524.542C285.977 525.151 282.812 522.768 282.709 520.324C282.628 518.421 288.519 519.558 289.645 521.663ZM1268.18 523.636C1267.75 525.358 1267.13 526.501 1266.81 526.178C1266.49 525.855 1266.58 524.184 1267.01 522.462C1267.44 520.742 1268.06 519.599 1268.38 519.922C1268.7 520.245 1268.61 521.916 1268.18 523.636ZM281.497 521.109C281.497 521.379 281.818 522.435 282.21 523.457C283.076 525.716 279.184 526.053 277.037 523.905C274.849 521.717 275.358 520.618 278.563 520.618C280.177 520.618 281.497 520.839 281.497 521.109ZM275.041 524.14C277.113 526.43 277.092 526.488 274.175 526.488C271.334 526.488 269.119 523.997 270.623 522.494C271.804 521.312 272.827 521.692 275.041 524.14ZM267.904 527.484C265.451 527.993 263.468 525.135 265.419 523.899C266.229 523.386 267.47 523.87 268.35 525.043C269.64 526.762 269.572 527.139 267.904 527.484ZM379.512 525.43C407.142 528.139 442.782 534.541 469.896 541.667C486.448 546.017 485.239 546.042 461.939 541.832C416.688 533.657 379.334 529.982 339.856 529.821C312.336 529.709 310.843 529.454 310.843 524.857C310.843 522.916 357.855 523.308 379.512 525.43ZM309.455 527.075C310.718 529.848 310.6 530.01 307.297 530.01C305.373 530.01 303.8 529.79 303.8 529.52C303.8 529.25 303.497 528.239 303.127 527.274C302.533 525.726 303.506 525.048 307.426 524.276C307.807 524.201 308.721 525.461 309.455 527.075ZM700.553 524.584C700.553 524.827 699.628 525.752 698.499 526.638C696.637 528.098 696.596 528.057 698.055 526.195C699.589 524.239 700.553 523.618 700.553 524.584ZM262.716 527.075C263.904 528.508 263.849 528.836 262.417 528.836C261.448 528.836 259.999 528.044 259.195 527.075C258.007 525.643 258.062 525.314 259.494 525.314C260.462 525.314 261.912 526.107 262.716 527.075ZM301.102 527.538C302.309 529.47 302.108 529.836 299.582 530.319C296.985 530.816 294.409 528.656 294.409 525.979C294.409 524.289 299.868 525.561 301.102 527.538ZM256.96 528.384C258.321 530.026 258.234 530.223 256.32 529.852C255.103 529.616 253.887 528.764 253.619 527.956C252.922 525.861 255.098 526.141 256.96 528.384ZM293.001 527.897C295.189 530.086 294.679 531.185 291.475 531.185C289.861 531.185 288.54 530.964 288.54 530.694C288.54 530.424 288.22 529.367 287.828 528.346C286.961 526.087 290.854 525.75 293.001 527.897ZM701.096 529.325C700.074 530.885 698.402 532.482 697.382 532.874C695.272 533.684 697.079 530.763 700.426 527.956C703.003 525.794 703.176 526.149 701.096 529.325ZM278.469 532.18C276.015 532.69 274.033 529.831 275.984 528.596C276.794 528.083 278.034 528.566 278.915 529.739C280.205 531.458 280.137 531.835 278.469 532.18ZM286.193 529.423C287.425 530.91 287.193 531.185 284.701 531.185C283.077 531.185 281.444 530.392 281.072 529.423C280.623 528.249 281.12 527.662 282.564 527.662C283.756 527.662 285.388 528.455 286.193 529.423ZM252.152 530.01C253.582 530.936 253.431 531.152 251.34 531.167C249.926 531.176 248.442 530.656 248.043 530.01C247.119 528.516 249.839 528.516 252.152 530.01ZM272.512 532.653C272.174 533.199 271.128 533.007 270.186 532.226C268.832 531.101 268.786 530.612 269.966 529.883C271.576 528.887 273.527 531.01 272.512 532.653ZM1267 536.124C1264.79 539.279 1264.63 537.694 1266.61 532.24C1267.86 528.786 1268.11 528.603 1268.45 530.873C1268.67 532.316 1268.02 534.679 1267 536.124ZM246.282 531.185C247.706 532.105 247.537 532.326 245.402 532.341C243.949 532.35 242.761 531.83 242.761 531.185C242.761 529.713 244.006 529.713 246.282 531.185ZM267.524 531.907C268.886 533.548 268.799 533.745 266.884 533.374C265.667 533.138 264.451 532.286 264.183 531.478C263.486 529.383 265.662 529.663 267.524 531.907ZM262.041 533.675C261.28 534.906 259.195 533.918 259.195 532.326C259.195 531.739 259.983 531.561 260.948 531.931C261.913 532.302 262.405 533.087 262.041 533.675ZM393.011 534.131C424.53 537.165 502.464 550.073 500.588 551.949C500.355 552.184 489.127 550.792 475.638 548.856C429.259 542.199 387.977 538.612 344.884 537.493C316.759 536.761 314.364 536.327 314.364 531.951C314.364 530.328 369.315 531.851 393.011 534.131ZM694.684 531.59C694.684 531.813 693.495 533.001 692.043 534.231L689.401 536.468L691.638 533.826C693.739 531.344 694.684 530.65 694.684 531.59ZM240.413 533.533C240.413 535.004 239.168 535.004 236.892 533.533C235.468 532.612 235.637 532.392 237.772 532.376C239.225 532.367 240.413 532.887 240.413 533.533ZM256.847 533.533C258.365 534.513 258.333 534.673 256.623 534.689C255.531 534.699 254.311 534.178 253.912 533.533C252.994 532.046 254.549 532.046 256.847 533.533ZM296.757 534.707C297.81 536.675 297.649 537.055 295.769 537.055C293.286 537.055 290.465 534.346 291.68 533.131C293.164 531.648 295.51 532.376 296.757 534.707ZM304.974 534.707C306.075 536.764 305.866 537.055 303.295 537.055C301.563 537.055 299.846 536.093 299.105 534.707C298.004 532.65 298.212 532.359 300.783 532.359C302.516 532.359 304.232 533.32 304.974 534.707ZM313.19 534.707C314.292 536.764 314.083 537.055 311.512 537.055C309.779 537.055 308.063 536.093 307.321 534.707C306.22 532.65 306.429 532.359 309 532.359C310.732 532.359 312.449 533.32 313.19 534.707ZM251.565 534.707C251.964 535.353 251.762 535.881 251.116 535.881C250.471 535.881 249.616 535.353 249.217 534.707C248.818 534.061 249.02 533.533 249.665 533.533C250.311 533.533 251.166 534.061 251.565 534.707ZM282.784 535.429C284.145 537.07 284.059 537.267 282.144 536.896C280.927 536.66 279.711 535.808 279.443 535C278.746 532.906 280.922 533.185 282.784 535.429ZM289.714 535.294C290.93 536.759 290.781 537.055 288.828 537.055C287.537 537.055 285.823 536.262 285.019 535.294C283.803 533.829 283.952 533.533 285.905 533.533C287.196 533.533 288.91 534.325 289.714 535.294ZM233.664 535.484C232.857 535.81 231.537 535.81 230.729 535.484C229.923 535.159 230.583 534.892 232.197 534.892C233.811 534.892 234.471 535.159 233.664 535.484ZM271.52 535.881C271.919 536.527 271.421 537.055 270.415 537.055C269.409 537.055 268.585 536.527 268.585 535.881C268.585 535.235 269.082 534.707 269.69 534.707C270.298 534.707 271.121 535.235 271.52 535.881ZM277.389 535.881C277.788 536.527 277.322 537.055 276.354 537.055C275.385 537.055 274.266 536.527 273.867 535.881C273.468 535.235 273.934 534.707 274.903 534.707C275.871 534.707 276.99 535.235 277.389 535.881ZM265.847 536.664C265.416 537.094 264.712 537.094 264.281 536.664C263.851 536.233 264.203 535.881 265.064 535.881C265.924 535.881 266.276 536.233 265.847 536.664ZM694.069 538.694C693.056 540.24 691.126 541.794 689.781 542.146C687.631 542.708 687.736 542.368 690.642 539.333C694.631 535.169 696.62 534.798 694.069 538.694ZM227.183 537.764C226.793 538.154 225.78 538.196 224.934 537.857C223.997 537.482 224.276 537.204 225.643 537.148C226.88 537.097 227.573 537.374 227.183 537.764ZM301.452 541.894C301.452 543.261 298.953 543.175 296.757 541.734C295.215 540.72 295.21 540.44 296.717 539.47C298.482 538.336 301.452 539.856 301.452 541.894ZM308.223 540.577C309.541 542.688 309.396 542.925 306.786 542.925C305.084 542.925 303.362 541.953 302.626 540.577C301.539 538.546 301.734 538.229 304.063 538.229C305.544 538.229 307.416 539.286 308.223 540.577ZM316.44 540.577C317.747 542.671 317.612 542.925 315.195 542.925C312.518 542.925 309.669 540.989 309.669 539.168C309.669 537.213 315.037 538.33 316.44 540.577ZM374.229 540.662C412.875 542.767 447.997 546.552 494.542 553.632C507.452 555.595 518.28 557.494 518.605 557.854C518.93 558.213 516.556 558.184 513.328 557.789C483.91 554.191 387.241 546.932 336.906 544.541C320.312 543.753 317.886 543.049 317.886 539.016C317.886 538.316 346.511 539.152 374.229 540.662ZM468.918 539.012C468.488 539.442 467.783 539.442 467.352 539.012C466.923 538.581 467.275 538.229 468.135 538.229C468.996 538.229 469.348 538.581 468.918 539.012ZM280.902 540.564C281.313 541.229 280.842 541.426 279.798 541.026C277.764 540.245 277.392 539.403 279.08 539.403C279.688 539.403 280.508 539.926 280.902 540.564ZM286.779 540.577C287.179 541.223 286.713 541.751 285.744 541.751C284.776 541.751 283.657 541.223 283.258 540.577C282.859 539.931 283.325 539.403 284.293 539.403C285.262 539.403 286.38 539.931 286.779 540.577ZM293.235 540.577C293.235 541.223 292.475 541.751 291.544 541.751C290.613 541.751 289.526 541.223 289.127 540.577C288.728 539.931 289.49 539.403 290.819 539.403C292.147 539.403 293.235 539.931 293.235 540.577ZM473.614 540.186C473.183 540.616 472.479 540.616 472.048 540.186C471.618 539.755 471.97 539.403 472.831 539.403C473.691 539.403 474.043 539.755 473.614 540.186ZM686.414 541.229C685.581 542.233 683.799 543.625 682.455 544.322C680.274 545.455 680.317 545.259 682.856 542.498C685.862 539.229 689.002 538.108 686.414 541.229ZM1262.81 543.761C1261.53 545.757 1261.5 545.754 1262.14 543.71C1262.51 542.527 1262.86 540.942 1262.91 540.187C1262.97 539.198 1263.16 539.212 1263.58 540.239C1263.9 541.022 1263.55 542.607 1262.81 543.761ZM283.454 543.708C283.023 544.138 282.319 544.138 281.888 543.708C281.458 543.278 281.811 542.925 282.671 542.925C283.531 542.925 283.884 543.278 283.454 543.708ZM678.25 544.686C677.446 545.655 676.26 546.448 675.615 546.448C674.96 546.448 675.088 545.669 675.902 544.686C676.707 543.718 677.892 542.925 678.538 542.925C679.193 542.925 679.065 543.704 678.25 544.686ZM290.293 545.261C290.704 545.925 290.233 546.122 289.188 545.722C287.155 544.941 286.783 544.099 288.471 544.099C289.079 544.099 289.898 544.622 290.293 545.261ZM296.17 545.273C296.569 545.919 296.103 546.448 295.135 546.448C294.166 546.448 293.048 545.919 292.649 545.273C292.249 544.628 292.715 544.099 293.684 544.099C294.652 544.099 295.771 544.628 296.17 545.273ZM303.8 545.861C305.016 547.326 304.867 547.622 302.914 547.622C301.622 547.622 299.909 546.829 299.105 545.861C297.889 544.395 298.038 544.099 299.991 544.099C301.282 544.099 302.996 544.892 303.8 545.861ZM687.455 547.622C684.967 550.989 681.772 552.357 681.772 550.055C681.772 548.785 687.465 544.099 689.008 544.099C689.586 544.099 688.887 545.684 687.455 547.622ZM201.286 546.057C200.855 546.486 200.151 546.486 199.72 546.057C199.291 545.626 199.643 545.273 200.503 545.273C201.364 545.273 201.716 545.626 201.286 546.057ZM311.729 547.328C312.444 549.498 307.702 549.133 306.866 546.954C306.337 545.575 306.799 545.205 308.703 545.486C310.101 545.691 311.464 546.522 311.729 547.328ZM320.233 547.622C321.335 549.679 321.126 549.97 318.555 549.97C316.822 549.97 315.106 549.008 314.364 547.622C313.263 545.565 313.472 545.273 316.043 545.273C317.775 545.273 319.492 546.235 320.233 547.622ZM367.186 548.269C447.361 552.732 568.27 563.928 518.023 562.235C445.188 559.782 332.917 552.971 325.298 550.545C319.555 548.716 321.609 545.325 328.123 545.886C331.854 546.208 349.432 547.279 367.186 548.269ZM485.352 546.057C484.921 546.486 484.217 546.486 483.786 546.057C483.356 545.626 483.709 545.273 484.569 545.273C485.429 545.273 485.781 545.626 485.352 546.057ZM490.047 547.231C489.616 547.66 488.912 547.66 488.481 547.231C488.052 546.8 488.404 546.448 489.264 546.448C490.125 546.448 490.477 546.8 490.047 547.231ZM670.033 546.965C670.033 547.251 669.423 547.86 668.678 548.32C667.838 548.84 667.641 548.643 668.161 547.804C668.997 546.45 670.033 545.986 670.033 546.965ZM679.424 549.383C676.259 552.751 672.129 553.69 674.838 550.425C676.147 548.847 679.707 546.817 681.682 546.521C681.957 546.482 680.941 547.768 679.424 549.383ZM292.649 548.796C293.048 549.441 292.846 549.97 292.2 549.97C291.555 549.97 290.7 549.441 290.301 548.796C289.902 548.15 290.104 547.622 290.749 547.622C291.395 547.622 292.249 548.15 292.649 548.796ZM300.202 550.464C301.338 551.834 301.151 552.02 299.154 551.497C296.217 550.728 294.77 548.796 297.131 548.796C298.059 548.796 299.44 549.547 300.202 550.464ZM671.9 551.026C669.321 553.877 664.41 555.439 666.697 552.681C667.937 551.187 671.501 549.174 673.443 548.87C673.705 548.83 673.01 549.8 671.9 551.026ZM307.746 551.731C308.141 552.759 307.764 553.492 306.841 553.492C305.973 553.492 304.604 552.7 303.8 551.731C302.583 550.264 302.734 549.97 304.705 549.97C306.005 549.97 307.374 550.762 307.746 551.731ZM315.251 553.198C315.965 555.368 311.223 555.003 310.387 552.824C309.858 551.446 310.32 551.076 312.224 551.356C313.622 551.562 314.985 552.392 315.251 553.198ZM323.927 554.988C325.01 557.011 324.901 557.255 323.209 556.606C322.113 556.184 320.749 555.84 320.178 555.84C319.609 555.84 318.618 554.861 317.979 553.665C316.966 551.771 317.192 551.562 319.733 552.047C321.339 552.354 323.226 553.677 323.927 554.988ZM296.366 553.101C295.935 553.531 295.231 553.531 294.8 553.101C294.371 552.67 294.723 552.318 295.583 552.318C296.444 552.318 296.796 552.67 296.366 553.101ZM353.101 555.223C392.075 558.498 428.89 560.595 498.629 563.509C524.761 564.601 541.915 565.781 542.647 566.537C544.719 568.679 409.782 567.143 384.612 564.74C346.662 561.115 328.404 558.024 326.323 554.868C324.538 552.159 324.558 552.141 328.539 552.816C330.75 553.189 341.802 554.273 353.101 555.223ZM505.307 553.101C504.876 553.531 504.172 553.531 503.741 553.101C503.311 552.67 503.664 552.318 504.524 552.318C505.384 552.318 505.737 552.67 505.307 553.101ZM663.665 553.35C663.314 553.918 661.831 554.685 660.368 555.054C657.802 555.699 657.788 555.663 659.987 554.02C662.51 552.135 664.657 551.744 663.665 553.35ZM304.974 556.359C304.974 556.599 303.917 556.518 302.626 556.181C301.335 555.843 300.278 555.081 300.278 554.488C300.278 553.892 301.329 553.972 302.626 554.666C303.917 555.358 304.974 556.118 304.974 556.359ZM680.946 556.391C679.728 558.064 677.635 559.304 675.992 559.326L673.145 559.362L675.902 556.427C679.808 552.27 683.967 552.239 680.946 556.391ZM311.261 557.584C311.646 558.586 311.106 558.904 309.662 558.526C308.465 558.213 307.223 557.276 306.904 556.445C306.518 555.442 307.058 555.124 308.502 555.502C309.7 555.815 310.941 556.752 311.261 557.584ZM672.381 557.601C670.864 559.216 668.527 560.52 667.188 560.499C664.946 560.465 665.014 560.231 668.045 557.564C672.617 553.54 676.167 553.571 672.381 557.601ZM664.572 558.302C663.218 559.657 661.119 560.556 659.909 560.303C658.06 559.914 658.272 559.528 661.23 557.887C666.092 555.191 667.507 555.367 664.572 558.302ZM319.06 559.362C320.664 562.362 318.949 562.381 315.375 559.401L312.604 557.093L315.204 557.053C316.633 557.032 318.368 558.071 319.06 559.362ZM656.355 559.476C655.001 560.831 652.91 561.749 651.709 561.518C650.009 561.192 650.433 560.65 653.616 559.083C658.943 556.459 659.317 556.513 656.355 559.476ZM327.552 560.989C328.683 562.706 328.677 564.059 327.538 564.059C325.964 564.059 321.407 560.46 321.407 559.217C321.407 557.742 326.353 559.169 327.552 560.989ZM307.321 560.536C307.321 561.182 307.089 561.711 306.804 561.711C306.518 561.711 305.96 561.182 305.561 560.536C305.162 559.891 305.395 559.362 306.078 559.362C306.761 559.362 307.321 559.891 307.321 560.536ZM364.537 564.558C400.457 568.575 414.837 569.161 482.531 569.363C548.464 569.562 559.743 569.953 547.15 571.603C467.045 582.102 329.624 575.096 329.624 560.513C329.624 560.102 333.846 560.437 339.006 561.259C344.168 562.079 355.656 563.564 364.537 564.558ZM647.731 560.536C645.432 562.023 643.878 562.023 644.796 560.536C645.195 559.891 646.415 559.371 647.506 559.38C649.217 559.396 649.248 559.556 647.731 560.536ZM314.999 562.963C316.278 565.032 314.93 565.322 312.518 563.496C310.532 561.993 310.498 561.781 312.241 561.748C313.333 561.727 314.574 562.274 314.999 562.963ZM636.775 562.494C636.345 562.923 635.64 562.923 635.209 562.494C634.78 562.063 635.132 561.711 635.992 561.711C636.853 561.711 637.205 562.063 636.775 562.494ZM666.512 564.646C663.028 568.355 656.653 568.993 659.996 565.299C661.794 563.311 663.634 562.541 668.183 561.87C668.781 561.782 668.028 563.031 666.512 564.646ZM674.834 563.861C673.028 567.238 670.508 568.863 668.358 568.038C666.592 567.36 666.659 566.989 669 564.495C672.237 561.05 676.592 560.576 674.834 563.861ZM323.834 566.554C324.482 567.764 324.582 568.755 324.058 568.755C322.576 568.755 317.886 565.219 317.886 564.102C317.886 562.33 322.617 564.282 323.834 566.554ZM649.324 565.335C647.846 566.813 645.763 567.629 644.074 567.39C641.461 567.02 641.548 566.859 645.383 564.966C650.904 562.241 652.287 562.37 649.324 565.335ZM657.708 565.233C656.54 566.524 654.212 567.569 652.537 567.555L649.491 567.529L652.426 565.233C656.648 561.93 660.697 561.93 657.708 565.233ZM311.46 566.18C311.1 566.542 310.153 566.181 309.356 565.378C308.205 564.218 308.34 564.085 310.013 564.721C311.17 565.162 311.822 565.819 311.46 566.18ZM632.471 565.233C631.503 565.859 629.918 566.37 628.949 566.37C627.385 566.37 627.385 566.245 628.949 565.233C629.918 564.607 631.503 564.095 632.471 564.095C634.036 564.095 634.036 564.221 632.471 565.233ZM641.275 565.233C640.876 565.879 639.493 566.407 638.202 566.407C636.91 566.407 636.18 565.879 636.579 565.233C636.978 564.587 638.361 564.059 639.652 564.059C640.944 564.059 641.674 564.587 641.275 565.233ZM329.585 566.407C330.104 566.407 331.373 567.697 332.407 569.275C334.276 572.128 334.269 572.138 331.05 571.015C329.271 570.395 327.113 568.763 326.255 567.39C324.878 565.183 324.926 564.98 326.67 565.65C327.754 566.066 329.066 566.407 329.585 566.407ZM548.738 566.016C548.308 566.446 547.603 566.446 547.173 566.016C546.743 565.585 547.095 565.233 547.956 565.233C548.816 565.233 549.168 565.585 548.738 566.016ZM622.689 566.016C622.259 566.446 621.554 566.446 621.124 566.016C620.694 565.585 621.046 565.233 621.906 565.233C622.767 565.233 623.119 565.585 622.689 566.016ZM319.758 570.101C321.979 572.601 321.977 572.609 319.419 571.268C316.565 569.771 314.808 567.581 316.461 567.581C317.044 567.581 318.528 568.714 319.758 570.101ZM354.861 571.642C402.772 580.265 464.902 581.467 531.522 575.061C585.032 569.916 558.828 577.858 499.242 584.845C437.198 592.12 334.319 581.894 334.319 568.451C334.319 567.886 335.244 567.707 336.374 568.053C337.503 568.4 345.823 570.015 354.861 571.642ZM566.18 569.703C565.82 570.064 564.873 569.704 564.076 568.901C562.925 567.741 563.06 567.607 564.733 568.243C565.89 568.685 566.542 569.341 566.18 569.703ZM573.389 568.364C572.958 568.794 572.254 568.794 571.823 568.364C571.393 567.933 571.745 567.581 572.606 567.581C573.466 567.581 573.818 567.933 573.389 568.364ZM606.329 568.29C605.939 568.68 604.926 568.722 604.08 568.383C603.143 568.008 603.421 567.73 604.789 567.674C606.026 567.623 606.718 567.9 606.329 568.29ZM616.624 568.755C613.115 570.264 610.182 570.264 612.516 568.755C613.484 568.129 615.333 567.646 616.624 567.682L618.972 567.746L616.624 568.755ZM558.202 569.464C557.812 569.854 556.799 569.896 555.953 569.557C555.016 569.182 555.294 568.904 556.662 568.848C557.899 568.797 558.592 569.074 558.202 569.464ZM624.254 569.929C621.942 571.424 619.222 571.424 620.146 569.929C620.545 569.283 622.029 568.763 623.443 568.773C625.534 568.788 625.685 569.004 624.254 569.929ZM633.127 570.554C630.566 572.491 627.776 572.829 627.776 571.201C627.776 569.892 629.903 568.959 633.058 568.885C635.374 568.83 635.375 568.852 633.127 570.554ZM644.209 569.315C644.209 570.776 638.445 573.417 636.711 572.752C634.904 572.059 634.915 571.875 636.839 570.415C638.813 568.916 644.209 568.11 644.209 569.315ZM650.314 572.563C648.665 574.212 647.241 574.628 645.326 574.02L642.644 573.17L645.363 571.118C649.359 568.103 653.55 569.327 650.314 572.563ZM328.225 573.526C329.005 574.777 329.341 575.799 328.97 575.799C327.391 575.799 323.981 573.388 323.393 571.856C322.438 569.364 326.504 570.771 328.225 573.526ZM583.464 570.706C582.657 571.033 581.337 571.033 580.529 570.706C579.723 570.381 580.382 570.115 581.996 570.115C583.61 570.115 584.271 570.381 583.464 570.706ZM598.723 570.706C597.917 571.033 596.596 571.033 595.789 570.706C594.982 570.381 595.642 570.115 597.256 570.115C598.87 570.115 599.531 570.381 598.723 570.706ZM658.783 572.571C657.56 574.024 656.462 575.393 656.342 575.613C656.222 575.833 654.99 575.654 653.602 575.214C650.156 574.119 653.7 569.929 658.072 569.929C660.991 569.929 660.995 569.943 658.783 572.571ZM667.481 573.387C663.327 578.647 657.732 578.053 661.576 572.759C662.844 571.014 664.795 569.989 666.895 569.966L670.212 569.929L667.481 573.387ZM567.911 573.703C567.911 574.348 567.075 574.556 566.054 574.164C565.032 573.772 563.58 573.443 562.826 573.434C561.984 573.422 562.094 573.011 563.108 572.368C565.011 571.163 567.911 571.97 567.911 573.703ZM575.247 571.88C574.441 572.207 573.12 572.207 572.312 571.88C571.506 571.555 572.166 571.289 573.78 571.289C575.394 571.289 576.055 571.555 575.247 571.88ZM591.974 572.277C592.373 572.923 591.611 573.451 590.283 573.451C588.954 573.451 587.866 572.923 587.866 572.277C587.866 571.632 588.626 571.103 589.557 571.103C590.488 571.103 591.575 571.632 591.974 572.277ZM610.168 571.553C610.168 572.621 605.593 573.074 604.136 572.152C603.05 571.464 603.759 571.134 606.353 571.121C608.452 571.111 610.168 571.306 610.168 571.553ZM618.385 573.451C617.417 574.077 615.04 574.589 613.103 574.589C610.401 574.589 609.991 574.325 611.342 573.451C612.31 572.826 614.688 572.314 616.624 572.314C619.326 572.314 619.736 572.578 618.385 573.451ZM334.37 574.652C335.604 575.313 337.189 576.93 337.894 578.246C339.134 580.565 339.067 580.584 335.715 578.85C333.812 577.866 331.945 576.248 331.564 575.256C330.752 573.139 331.316 573.017 334.37 574.652ZM584.931 574.625C585.861 576.131 580.803 576.131 578.475 574.625C577.136 573.759 577.61 573.483 580.46 573.469C582.52 573.46 584.532 573.98 584.931 574.625ZM601.951 574.625C601.951 575.271 600.335 575.799 598.361 575.799C596.265 575.799 595.072 575.31 595.495 574.625C595.895 573.98 597.51 573.451 599.086 573.451C600.663 573.451 601.951 573.98 601.951 574.625ZM626.084 575.25C623.524 577.186 621.18 577.473 620.247 575.963C619.243 574.339 620.859 573.449 624.744 573.489C628.179 573.524 628.248 573.613 626.084 575.25ZM324.929 577.242C324.929 577.93 324.183 577.817 323.168 576.974C322.2 576.169 321.407 575.329 321.407 575.106C321.407 574.883 322.2 575.003 323.168 575.374C324.136 575.747 324.929 576.587 324.929 577.242ZM576.093 575.754C577.043 576.355 577.464 577.203 577.029 577.638C575.834 578.832 570.056 577.077 570.866 575.765C571.749 574.338 573.848 574.333 576.093 575.754ZM634.819 576.978C633.205 578.245 631.181 579.026 630.32 578.714C629.461 578.402 628.141 578.131 627.386 578.11C624.227 578.024 630.883 574.628 634.162 574.651L637.753 574.677L634.819 576.978ZM354.22 579.895C405.628 592.929 466.733 593.095 543.164 580.407C563.084 577.1 572.197 576.718 569.548 579.302C566.586 582.188 515.277 592.957 484.569 597.137C432.982 604.159 339.586 590.949 339.052 576.554C339.031 576.001 339.863 575.875 340.901 576.273C341.939 576.671 347.932 578.3 354.22 579.895ZM594.279 576.866C596.38 577.687 596.311 577.835 593.492 578.543C589.984 579.424 586.38 578.429 587.355 576.85C588.124 575.605 591.071 575.612 594.279 576.866ZM609.821 577.474C608.66 578.353 606.686 578.805 605.432 578.478C602.027 577.586 603.894 575.794 608.183 575.837C611.597 575.871 611.742 576.017 609.821 577.474ZM643.622 578.148C641.561 580.425 635.992 581.454 635.992 579.557C635.992 577.57 638.955 575.799 642.278 575.799C645.673 575.799 645.701 575.85 643.622 578.148ZM618.946 578.045C622.468 579.422 617.158 581.996 612.968 580.944L609.85 580.161L612.651 578.609C615.857 576.831 615.841 576.833 618.946 578.045ZM652.217 580.064C649.804 582.479 648.444 582.982 646.003 582.37L642.879 581.585L645.598 579.318C647.094 578.071 649.891 577.035 651.812 577.012L655.308 576.974L652.217 580.064ZM333.784 581.754C335.423 584.405 333.408 583.858 330.705 580.918C327.996 577.973 327.983 577.892 330.439 579.169C331.855 579.905 333.362 581.069 333.784 581.754ZM586.658 580.119C588.204 581.531 583.563 582.449 580.42 581.354C577.237 580.243 577.091 580.004 579.122 579.22C581.219 578.408 585.322 578.898 586.658 580.119ZM603.125 580.508C603.125 581.969 600.05 582.741 597.196 581.994C594.789 581.365 594.732 581.18 596.551 579.85C598.565 578.378 603.125 578.833 603.125 580.508ZM660.408 581.737C658.495 584.326 657.095 585.147 655.384 584.687C654.08 584.337 652.525 584.043 651.928 584.034C651.331 584.025 652.083 582.697 653.6 581.083C655.292 579.281 657.651 578.148 659.708 578.148H663.061L660.408 581.737ZM627.51 580.307C630.285 582.069 625.375 585.137 621.906 583.807C619.054 582.714 619.036 582.635 621.25 581.002C623.827 579.102 625.347 578.933 627.51 580.307ZM578.348 582.136C587.17 587.026 504.324 607.801 462.853 611.099C423.431 614.234 358.981 602.233 347.176 589.558C344.434 586.615 344.189 584.674 346.681 585.631C401.656 606.731 481.458 606.175 560.868 584.14C575.459 580.092 574.799 580.167 578.348 582.136ZM342.382 585.382C343.202 586.695 343.652 587.989 343.384 588.258C342.711 588.932 336.667 584.081 336.667 582.869C336.667 581.099 340.86 582.944 342.382 585.382ZM594.317 583.282C597.442 585.568 592.652 587.126 588.816 585.072C586.242 583.695 586.232 583.62 588.478 582.742C591.733 581.47 591.854 581.482 594.317 583.282ZM611.097 582.422C613.751 583.134 613.755 583.164 611.436 584.788C609.077 586.441 603.125 585.868 603.125 583.989C603.125 582.067 606.959 581.314 611.097 582.422ZM637.673 582.716C638.699 584.376 633.025 587.465 630.272 586.745C627.239 585.952 627.159 585.332 629.83 583.304C632.188 581.514 636.72 581.173 637.673 582.716ZM330.211 584.018C330.61 584.664 330.672 585.192 330.349 585.192C330.027 585.192 329.436 584.664 329.037 584.018C328.638 583.372 328.576 582.844 328.899 582.844C329.221 582.844 329.812 583.372 330.211 584.018ZM646.557 585.147C646.557 587.516 641.791 590.126 638.826 589.381L635.695 588.595L638.236 585.891C640.623 583.348 646.557 582.818 646.557 585.147ZM620.829 585.192C622.871 585.192 621.901 587.147 619.119 588.636C616.904 589.821 615.778 589.832 613.639 588.687L610.948 587.247L613.786 585.67C615.347 584.803 617.327 584.341 618.188 584.643C619.047 584.946 620.236 585.192 620.829 585.192ZM587.202 586.752C593.78 591.563 519.491 616.833 482.808 622.264C436.354 629.141 363.731 615.197 352.13 597.174L350.396 594.478L356.737 597.014C417.242 621.214 493.316 618.32 572.019 588.826C582.752 584.803 584.256 584.598 587.202 586.752ZM604.718 587.564C606.749 589.447 601.1 591.16 597.808 589.659C594.916 588.341 594.848 588.14 596.8 586.713C598.824 585.232 602.648 585.643 604.718 587.564ZM655.554 586.825C657.638 588.206 649.387 593.473 646.908 592.342L643.89 590.967L646.579 588.103C648.899 585.635 652.899 585.064 655.554 586.825ZM339.015 589.301C339.829 590.284 339.957 591.062 339.302 591.062C338.657 591.062 337.471 590.27 336.667 589.301C335.852 588.319 335.724 587.54 336.379 587.54C337.025 587.54 338.211 588.333 339.015 589.301ZM629.491 588.273C631.237 588.943 631.23 589.19 629.405 591.208C626.023 594.945 618.684 593.185 621.833 589.391C623.442 587.451 626.274 587.038 629.491 588.273ZM593.597 595.431C513.643 641.623 439.804 649.892 378.046 619.57C359.787 610.606 350.245 601.272 367.483 609.238C426.901 636.698 514.928 629.306 588.658 590.666C591.555 589.148 592.35 589.152 595.344 590.701L598.742 592.458L593.597 595.431ZM612.373 590.345L615.164 591.893L612.53 593.738C609.901 595.58 604.299 594.47 604.299 592.106C604.299 589.364 608.822 588.376 612.373 590.345ZM636.673 591.099L639.855 592.308L637.176 595.162C634.942 597.54 634.081 597.802 632.016 596.729C628.392 594.846 628.381 594.81 630.703 592.244C633.203 589.481 632.683 589.581 636.673 591.099ZM347.173 593.618C350.681 597.385 348.874 597.934 345.168 594.229C343.427 592.488 342.63 591.062 343.398 591.062C344.164 591.062 345.864 592.213 347.173 593.618ZM623.08 595.906C623.08 598.168 618.109 599.532 615.013 598.121L611.937 596.719L614.637 594.532C617.315 592.363 623.08 593.303 623.08 595.906ZM603.657 594.774C608.031 596.766 607.702 597.182 595.452 605.119C512.619 658.79 437.983 665.503 375.911 624.862C363.454 616.706 364.484 614.929 377.797 621.612C438.226 651.943 521.695 642.332 595.495 596.545C598.078 594.943 600.298 593.582 600.429 593.521C600.56 593.46 602.013 594.023 603.657 594.774ZM646.334 594.169L649.047 594.896L645.869 598.211C643.19 601.008 642.305 601.327 640.223 600.246C636.611 598.37 636.599 598.331 638.92 595.766C641.208 593.238 642.123 593.041 646.334 594.169ZM345.471 598.107C346.639 599.398 347.331 600.455 347.008 600.455C346.686 600.455 345.465 599.398 344.297 598.107C343.129 596.815 342.436 595.759 342.759 595.759C343.082 595.759 344.303 596.815 345.471 598.107ZM630.311 598.207C632.682 599.477 632.681 599.492 630.076 602.266C626.399 606.181 618.991 603.152 622.57 599.196C624.896 596.625 626.882 596.372 630.311 598.207ZM613.048 599.47C617.278 601.398 617.311 601.356 604.006 611.231C521.624 672.372 451.345 681.046 388.196 637.866C377.123 630.295 369.588 623.409 378.414 628.928C440.329 667.636 515.95 659.68 597.876 605.838C604.313 601.607 609.688 598.136 609.82 598.126C609.951 598.115 611.403 598.72 613.048 599.47ZM354.913 604.062C356.552 606.713 354.537 606.166 351.834 603.226C349.125 600.28 349.112 600.199 351.568 601.477C352.984 602.213 354.49 603.376 354.913 604.062ZM638.996 602.148C642.976 605.106 637.538 609.599 632.504 607.514L628.847 605.998L631.451 603.227C634.47 600.013 635.855 599.814 638.996 602.148ZM622.563 604.573C625.27 606.677 621.707 610.393 601.365 626.684C523.433 689.094 447.886 694.596 388.902 642.157L384.207 637.983L391.25 642.542C454.156 683.257 535.211 670.605 611.342 608.186C618.529 602.294 619.305 602.044 622.563 604.573ZM630.655 608.863C634.823 610.762 634.884 610.658 622.786 622.297C547.249 694.957 481.704 710.223 420.449 669.422C406.134 659.887 400.862 654.424 412.799 661.493C473.183 697.259 544.035 681.167 618.852 614.694C623.306 610.737 627.111 607.5 627.307 607.5C627.505 607.5 629.01 608.112 630.655 608.863ZM360.73 612.196C361.13 612.842 361.192 613.37 360.869 613.37C360.546 613.37 359.956 612.842 359.557 612.196C359.158 611.55 359.095 611.022 359.418 611.022C359.741 611.022 360.331 611.55 360.73 612.196Z" fill="white"/>
</svg>
